<?xml version="1.0" encoding="utf-8"?>
<!-- Svg Vector Icons : http://www.onlinewebfonts.com/icon -->
<!DOCTYPE svg PUBLIC "-//W3C//DTD SVG 1.1//EN" "http://www.w3.org/Graphics/SVG/1.1/DTD/svg11.dtd">
<svg version="1.1" xmlns="http://www.w3.org/2000/svg" xmlns:xlink="http://www.w3.org/1999/xlink" x="0px" y="0px" viewBox="0 0 256 256" enable-background="new 0 0 256 256" xml:space="preserve">
<metadata> Svg Vector Icons : http://www.onlinewebfonts.com/icon </metadata>
<g><g><path fill="#FEFEFE"  d="M202.8,246H53.2c-8.8,0-15.9-7.1-15.9-15.9V25.9c0-8.8,7.1-15.9,15.9-15.9h149.6c8.8,0,15.9,7.1,15.9,15.9v204.2C218.7,238.9,211.6,246,202.8,246z M192,63.2H64v15.8h128L192,63.2L192,63.2z M192,101.1H64V117h128L192,101.1L192,101.1z M192,139H64v15.8h128L192,139L192,139z M192,177h-89.2v15.8H192L192,177L192,177z"/></g></g>
</svg>